<mxfile host="app.diagrams.net" modified="2024-02-22T17:02:24.244Z" agent="Mozilla/5.0 (X11; Linux x86_64) AppleWebKit/537.36 (KHTML, like Gecko) Chrome/121.0.0.0 Safari/537.36" version="23.1.5" etag="fIgnPabdGS-8GqadGb0u" type="github">
  <diagram name="PÃ¡gina-1" id="1QXXaj4bKowX2_R7hB6m">
    <mxGraphModel>
      <root>
        <mxCell id="0" />
        <mxCell id="1" parent="0" />
      </root>
    </mxGraphModel>
  </diagram>
</mxfile>
